<svg width="753" height="38" viewBox="0 0 753 38" fill="none" xmlns="http://www.w3.org/2000/svg">
<path d="M0 0.734677H8.15613V9.8478C9.21709 6.90909 10.908 4.53311 13.262 2.71987C15.616 0.906623 18.6 0 22.247 0C28.4801 0 32.409 3.23571 34.0502 9.70712C35.1609 6.8153 36.9678 4.48622 39.471 2.68861C41.9742 0.890991 45.1074 0 48.8539 0C53.3961 0 56.7779 1.46935 58.9827 4.40806C61.2041 7.34677 62.3148 11.4422 62.3148 16.7256V38H54.1587V17.4759C54.1587 13.7869 53.595 11.0671 52.4512 9.3007C51.3074 7.53435 49.4009 6.64336 46.7154 6.64336C42.8031 6.64336 39.9186 8.09708 38.0454 11.0045C36.1721 13.912 35.2272 17.9292 35.2272 23.0564V37.9844H27.0711V17.4603C27.0711 13.7713 26.5074 11.0514 25.3636 9.28507C24.2197 7.51872 22.3133 6.62773 19.6278 6.62773C15.7155 6.62773 12.831 8.08145 10.9577 10.9889C9.08447 13.8963 8.13955 17.9136 8.13955 23.0407V37.9687H0V0.734677Z" fill="#F3F3F3"/>
<path d="M690 0.734677H698.156V9.8478C699.217 6.90909 700.908 4.53311 703.262 2.71987C705.616 0.906623 708.6 0 712.247 0C718.48 0 722.409 3.23571 724.05 9.70712C725.161 6.8153 726.968 4.48622 729.471 2.68861C731.974 0.890991 735.107 0 738.854 0C743.396 0 746.778 1.46935 748.983 4.40806C751.204 7.34677 752.315 11.4422 752.315 16.7256V38H744.159V17.4759C744.159 13.7869 743.595 11.0671 742.451 9.3007C741.307 7.53435 739.401 6.64336 736.715 6.64336C732.803 6.64336 729.919 8.09708 728.045 11.0045C726.172 13.912 725.227 17.9292 725.227 23.0564V37.9844H717.071V17.4603C717.071 13.7713 716.507 11.0514 715.364 9.28507C714.22 7.51872 712.313 6.62773 709.628 6.62773C705.715 6.62773 702.831 8.08145 700.958 10.9889C699.084 13.8963 698.14 17.9136 698.14 23.0407V37.9687H690V0.734677Z" fill="#F3F3F3"/>
<rect x="84" y="16" width="584" height="6" rx="1" fill="#F3F3F3"/>
</svg>
