<svg width="63" height="38" viewBox="0 0 63 38" fill="none" xmlns="http://www.w3.org/2000/svg">
<path d="M0 0.734677H8.15272V9.8478C9.21323 6.90909 10.9034 4.53311 13.2564 2.71987C15.6095 0.906623 18.5922 0 22.2377 0C28.4682 0 32.3954 3.23571 34.0359 9.70712C35.1462 6.8153 36.9523 4.48622 39.4545 2.68861C41.9567 0.890991 45.0885 0 48.8334 0C53.3738 0 56.7542 1.46935 58.9581 4.40806C61.1785 7.34677 62.2887 11.4422 62.2887 16.7256V38H54.136V17.4759C54.136 13.7869 53.5726 11.0671 52.4293 9.3007C51.2859 7.53435 49.3803 6.64336 46.6958 6.64336C42.7852 6.64336 39.9019 8.09708 38.0294 11.0045C36.157 13.912 35.2124 17.9292 35.2124 23.0564V37.9844H27.0597V17.4603C27.0597 13.7713 26.4963 11.0514 25.353 9.28507C24.2096 7.51872 22.304 6.62773 19.6195 6.62773C15.7089 6.62773 12.8256 8.08145 10.9531 10.9889C9.08067 13.8963 8.13614 17.9136 8.13614 23.0407V37.9687H0V0.734677Z" fill="#F3F3F3"/>
</svg>
